<?xml version="1.0" encoding="UTF-8"?>
<svg width="600" height="265" version="1.1" xmlns="http://www.w3.org/2000/svg">
 <path d="m544.69 190.62c0.846-0.846 1.7521-1.2239 2.7269-1.138 0.97054 0.0816 1.838 0.4638 2.5981 1.138 0.67851 0.59263 1.4386 1.2497 2.2846 1.9668 0.8417 0.71716 1.8165 1.3742 2.9159 1.9625 1.0994 0.59692 2.3662 1.0822 3.8048 1.4601 1.4343 0.3822 3.0877 0.57116 4.9472 0.57116 4.0582 0 7.395-1.1166 10.015-3.3582 2.6196-2.2417 3.9337-5.0545 3.9337-8.4342 0-3.8048-1.1638-6.8496-3.487-9.1299-2.3276-2.2846-6.025-4.6508-11.097-7.1029-3.2122-1.5202-6.1066-3.1263-8.6876-4.8183-2.5766-1.692-4.8011-3.5944-6.6563-5.7073-1.8595-2.1128-3.2766-4.5005-4.2472-7.1631-0.97483-2.6625-1.4601-5.7287-1.4601-9.1943 0-2.873 0.54968-5.6643 1.649-8.3698 1.0951-2.7055 2.7055-5.0932 4.8183-7.1674 2.1128-2.0699 4.6723-3.7404 7.6698-5.0073 3.0018-1.2668 6.3643-1.9024 10.083-1.9024 4.8226 0 8.9409 0.93188 12.364 2.7871 3.4226 1.8638 6.1496 3.8048 8.1808 5.8361 1.7736 1.7736 1.7736 3.5515 0 5.325l-2.9159 3.0447c-0.846 0.846-1.649 1.2883-2.4092 1.3313-0.76011 0.0429-1.649-0.39937-2.6625-1.3313-1.0994-1.0178-2.7914-2.1987-5.076-3.5515-2.2803-1.3527-4.7754-2.0312-7.4808-2.0312-1.8595 0-3.5729 0.31779-5.1361 0.95336-1.5632 0.63557-2.9159 1.4601-4.0582 2.4736s-2.027 2.1773-2.6625 3.487c-0.63557 1.3098-0.94906 2.684-0.94906 4.1226 0 1.8595 0.27054 3.5085 0.82452 4.9428 0.54968 1.4386 1.3914 2.7699 2.5337 3.9981 1.1423 1.2239 2.6196 2.3877 4.4404 3.487 1.8165 1.0994 4.0367 2.1987 6.6563 3.2938 3.4656 1.5245 6.5532 3.1306 9.2587 4.8183 2.7012 1.692 4.9858 3.5729 6.8453 5.6428 1.8595 2.0742 3.2766 4.4404 4.2514 7.1029 0.97054 2.6625 1.4558 5.7287 1.4558 9.1943 0 3.2165-0.67851 6.2569-2.027 9.1299-1.3527 2.8772-3.2165 5.3938-5.5784 7.5453-2.3705 2.1558-5.1361 3.8907-8.3054 5.2005-3.1736 1.3098-6.5361 1.9668-10.083 1.9668-5.7502 0-10.255-0.86747-13.506-2.6024-3.2552-1.7306-6.1109-3.9508-8.563-6.6563-0.67422-0.67422-1.0564-1.5202-1.138-2.538-0.0859-1.0135 0.29202-1.9411 1.138-2.7871zm-51.739 16.106c-1.181 0-2.1128-0.33926-2.7871-1.0135-0.67851-0.67852-1.0135-1.6061-1.0135-2.7914v-69.745c0-0.846-0.42514-1.2711-1.2711-1.2711h-19.02c-1.1852 0-2.1171-0.33497-2.7914-1.0135-0.67851-0.67422-1.0135-1.6018-1.0135-2.7914v-3.8006c0-1.1852 0.33496-2.1128 1.0135-2.7914 0.67423-0.67851 1.6061-1.0135 2.7914-1.0135h52.628c1.181 0 2.1128 0.33496 2.7871 1.0135 0.67422 0.67852 1.0178 1.6061 1.0178 2.7914v3.8006c0 1.1896-0.34356 2.1171-1.0178 2.7914-0.67422 0.67851-1.6061 1.0135-2.7871 1.0135h-19.024c-0.84599 0-1.2668 0.42514-1.2668 1.2711v69.745c0 1.1852-0.33926 2.1128-1.0135 2.7914-0.67852 0.67422-1.6104 1.0135-2.7914 1.0135zm-53.259 0c-1.1852 0-2.1343-0.31779-2.8515-0.94907-0.72146-0.63557-1.4601-1.5889-2.2245-2.8558l-32.208-56.433c-0.42515-0.67422-0.86747-0.92759-1.3313-0.76011-0.46809 0.17178-0.6957 0.59263-0.6957 1.2668v55.926c0 1.1852-0.34355 2.1128-1.0178 2.7914-0.67422 0.67422-1.6061 1.0135-2.7914 1.0135h-4.4361c-1.1852 0-2.1128-0.33926-2.7871-1.0135-0.67852-0.67852-1.0178-1.6061-1.0178-2.7914v-78.622c0-1.1852 0.33925-2.1128 1.0178-2.7914 0.67422-0.67851 1.6018-1.0135 2.7871-1.0135h4.9472c1.2668 0 2.3233 0.23189 3.1693 0.69569 0.846 0.46379 1.6061 1.2883 2.2846 2.4736l30.812 53.641c0.33926 0.50674 0.73864 0.72146 1.2067 0.63557 0.46379-0.0859 0.69569-0.46379 0.69569-1.1423v-52.499c0-1.1852 0.33496-2.1128 1.0135-2.7914 0.67851-0.67851 1.6061-1.0135 2.7914-1.0135h4.4404c1.181 0 2.1086 0.33496 2.7871 1.0135 0.67852 0.67852 1.0178 1.6061 1.0178 2.7914v78.622c0 1.1852-0.33926 2.1128-1.0178 2.7914-0.67851 0.67422-1.6061 1.0135-2.7871 1.0135zm-121.11 0c-1.1853 0-2.1128-0.33926-2.7914-1.0135-0.67423-0.67852-1.0135-1.6061-1.0135-2.7914v-78.622c0-1.1852 0.33925-2.1128 1.0135-2.7914 0.67851-0.67851 1.6061-1.0135 2.7914-1.0135h41.849c1.181 0 2.1086 0.33496 2.7871 1.0135 0.67851 0.67852 1.0178 1.6061 1.0178 2.7914v3.8006c0 1.1896-0.33926 2.1171-1.0178 2.7914-0.67852 0.67851-1.6061 1.0135-2.7871 1.0135h-32.341c-0.84171 0-1.2668 0.42514-1.2668 1.2711v22.825c0 0.846 0.42514 1.2668 1.2668 1.2668h29.807c1.181 0 2.1086 0.33926 2.7871 1.0178 0.67422 0.67422 1.0135 1.6061 1.0135 2.7871v3.8048c0 1.1852-0.33926 2.1128-1.0135 2.7914-0.67851 0.67851-1.6061 1.0135-2.7871 1.0135h-29.807c-0.84171 0-1.2668 0.42514-1.2668 1.2668v24.096c0 0.846 0.42514 1.2668 1.2668 1.2668h34.875c1.1852 0 2.1128 0.33926 2.7914 1.0178 0.67422 0.67423 1.0135 1.6061 1.0135 2.7871v3.8048c0 1.1852-0.33926 2.1128-1.0135 2.7914-0.67852 0.67422-1.6061 1.0135-2.7914 1.0135zm-38.676-55.797c0-2.9588-0.46379-5.6214-1.3957-7.9919-0.93188-2.3619-2.2417-4.3717-3.9294-6.0208-1.692-1.649-3.7018-2.8987-6.025-3.7404-2.3276-0.846-4.8827-1.2711-7.6741-1.2711h-12.677c-0.85029 0-1.2711 0.42514-1.2711 1.2711v60.869c0 0.846 0.42085 1.2668 1.2711 1.2668h12.677c2.7914 0 5.3465-0.42085 7.6741-1.2668 2.3233-0.84599 4.333-2.0699 6.025-3.676 1.6877-1.6061 2.9975-3.5944 3.9294-5.9606 0.93189-2.3662 1.3957-5.076 1.3957-8.1164zm-41.213 55.797c-1.1852 0-2.1171-0.33926-2.7914-1.0135-0.67851-0.67852-1.0135-1.6061-1.0135-2.7914v-78.626c0-1.181 0.33496-2.1086 1.0135-2.7871 0.67422-0.67851 1.6061-1.0135 2.7914-1.0135h22.189c4.6508 0 8.898 0.78158 12.746 2.3447s7.1201 3.6975 9.8299 6.403c2.7055 2.7055 4.7968 5.9177 6.2741 9.6366 1.4816 3.7232 2.2202 7.7385 2.2202 12.05v25.363c0 4.3116-0.73863 8.3268-2.2202 12.046-1.4773 3.7232-3.5686 6.9354-6.2741 9.6366-2.7098 2.7055-5.9821 4.8398-9.8299 6.4072-3.8478 1.5632-8.095 2.3448-12.746 2.3448zm-39.313-82.427c0-1.1852 0.33496-2.1128 1.0135-2.7914 0.67851-0.67422 1.6061-1.0135 2.7914-1.0135h4.4361c1.1853 0 2.1171 0.33925 2.7914 1.0135 0.67852 0.67852 1.0135 1.6061 1.0135 2.7914v54.53c0 4.3116-0.73864 8.2624-2.2159 11.857-1.4816 3.5944-3.5515 6.6563-6.214 9.1943s-5.8146 4.5263-9.4477 5.9606c-3.6374 1.4386-7.6097 2.1558-11.921 2.1558s-8.2882-0.71717-11.921-2.1558c-3.6374-1.4343-6.7852-3.4226-9.4477-5.9606-2.6625-2.538-4.7367-5.5999-6.214-9.1943-1.4816-3.5944-2.2159-7.5453-2.2159-11.857v-54.53c0-1.1852 0.33496-2.1128 1.0135-2.7914 0.67422-0.67422 1.6018-1.0135 2.7871-1.0135h4.4404c1.181 0 2.1128 0.33925 2.7914 1.0135 0.67422 0.67852 1.0135 1.6061 1.0135 2.7914v54.53c0 5.0717 1.5202 9.3017 4.565 12.681s7.4379 5.0717 13.188 5.0717c5.7459 0 10.143-1.692 13.188-5.0717s4.565-7.6097 4.565-12.681zm-97.01 82.427c-1.1852 0-2.1128-0.33926-2.7914-1.0135-0.67852-0.67852-1.0135-1.6061-1.0135-2.7914v-69.745c0-0.846-0.42515-1.2711-1.2668-1.2711h-19.024c-1.1853 0-2.1128-0.33497-2.7871-1.0135-0.67852-0.67422-1.0178-1.6018-1.0178-2.7914v-3.8006c0-1.1852 0.33926-2.1128 1.0178-2.7914 0.67422-0.67851 1.6018-1.0135 2.7871-1.0135h52.628c1.1852 0 2.1128 0.33496 2.7914 1.0135 0.67422 0.67852 1.0135 1.6061 1.0135 2.7914v3.8006c0 1.1896-0.33925 2.1171-1.0135 2.7914-0.67852 0.67851-1.6061 1.0135-2.7914 1.0135h-19.02c-0.846 0-1.2711 0.42514-1.2711 1.2711v69.745c0 1.1852-0.33926 2.1128-1.0135 2.7914-0.67852 0.67422-1.6061 1.0135-2.7914 1.0135zm-88.387-16.106c0.846-0.846 1.7521-1.2239 2.7269-1.138 0.97054 0.0816 1.838 0.4638 2.5981 1.138 0.67852 0.59263 1.4386 1.2497 2.2846 1.9668 0.8417 0.71716 1.8165 1.3742 2.9159 1.9625 1.0994 0.59692 2.3662 1.0822 3.8048 1.4601 1.4343 0.3822 3.0834 0.57116 4.9471 0.57116 4.0582 0 7.395-1.1166 10.019-3.3582 2.6196-2.2417 3.9294-5.0545 3.9294-8.4342 0-3.8048-1.1638-6.8496-3.4871-9.1299-2.3276-2.2846-6.025-4.6508-11.097-7.1029-3.2122-1.5202-6.1066-3.1263-8.6876-4.8183-2.5809-1.692-4.7968-3.5944-6.6563-5.7073-1.8595-2.1128-3.2766-4.5005-4.2472-7.1631-0.97483-2.6625-1.4601-5.7287-1.4601-9.1943 0-2.873 0.54968-5.6643 1.649-8.3698 1.0951-2.7055 2.7055-5.0932 4.8183-7.1674 2.1128-2.0699 4.6723-3.7404 7.6741-5.0073 2.9975-1.2668 6.36-1.9024 10.079-1.9024 4.8183 0 8.9409 0.93188 12.364 2.7871 3.4269 1.8638 6.1539 3.8048 8.1808 5.8361 1.7736 1.7736 1.7736 3.5515 0 5.325l-2.9159 3.0447c-0.846 0.846-1.649 1.2883-2.4092 1.3313-0.76011 0.0429-1.649-0.39937-2.6625-1.3313-1.0994-1.0178-2.7914-2.1987-5.0717-3.5515-2.2846-1.3527-4.7797-2.0312-7.4851-2.0312-1.8595 0-3.5729 0.31779-5.1361 0.95336-1.5632 0.63557-2.9159 1.4601-4.0582 2.4736-1.1423 1.0135-2.027 2.1773-2.6625 3.487-0.63128 1.3098-0.94906 2.684-0.94906 4.1226 0 1.8595 0.27055 3.5085 0.82452 4.9428 0.54968 1.4386 1.3957 2.7699 2.5337 3.9981 1.1423 1.2239 2.6196 2.3877 4.4404 3.487 1.8165 1.0994 4.0367 2.1987 6.6563 3.2938 3.4656 1.5245 6.5533 3.1306 9.2587 4.8183 2.7055 1.692 4.9858 3.5729 6.8453 5.6428 1.8595 2.0742 3.2766 4.4404 4.2515 7.1029 0.97053 2.6625 1.4558 5.7287 1.4558 9.1943 0 3.2165-0.67422 6.2569-2.027 9.1299-1.3527 2.8772-3.2165 5.3938-5.5784 7.5453-2.3705 2.1558-5.1361 3.8907-8.3097 5.2005-3.1693 1.3098-6.5318 1.9668-10.079 1.9668-5.7502 0-10.255-0.86747-13.506-2.6024-3.2552-1.7306-6.1109-3.9508-8.5587-6.6563-0.67852-0.67422-1.0607-1.5202-1.1423-2.538-0.085888-1.0135 0.29202-1.9411 1.1423-2.7871zm273.78-93.695c-1.1852 0-2.1128-0.33496-2.7914-1.0135-0.67422-0.67852-1.0135-1.6061-1.0135-2.7914v-78.626c0-1.181 0.33926-2.1086 1.0135-2.7871 0.67852-0.67852 1.6061-1.0135 2.7914-1.0135h41.849c1.1852 0 2.1128 0.33496 2.7871 1.0135 0.67852 0.67852 1.0178 1.6061 1.0178 2.7871v3.8048c0 1.1853-0.33926 2.1171-1.0178 2.7914-0.67422 0.67852-1.6018 1.0135-2.7871 1.0135h-32.337c-0.846 0-1.2712 0.42514-1.2712 1.2711v22.825c0 0.846 0.42515 1.2668 1.2712 1.2668h29.799c1.1852 0 2.1128 0.33926 2.7914 1.0178 0.67422 0.67422 1.0135 1.6061 1.0135 2.7871v3.8048c0 1.1853-0.33926 2.1128-1.0135 2.7914-0.67852 0.67852-1.6061 1.0135-2.7914 1.0135h-29.799c-0.846 0-1.2712 0.42515-1.2712 1.2668v24.096c0 0.846 0.42515 1.2668 1.2712 1.2668h34.871c1.1853 0 2.1128 0.33926 2.7914 1.0135 0.67422 0.67852 1.0135 1.6104 1.0135 2.7914v3.8048c0 1.1853-0.33926 2.1128-1.0135 2.7914-0.67851 0.67852-1.6061 1.0135-2.7914 1.0135zm-53.895 0c-1.1852 0-2.1128-0.33496-2.7914-1.0135-0.67422-0.67852-1.0135-1.6061-1.0135-2.7914v-69.745c0-0.846-0.42514-1.2711-1.2668-1.2711h-19.024c-1.1852 0-2.1128-0.33496-2.7914-1.0135-0.67422-0.67422-1.0135-1.6061-1.0135-2.7914v-3.8048c0-1.181 0.33926-2.1086 1.0135-2.7871 0.67852-0.67852 1.6061-1.0135 2.7914-1.0135h52.628c1.181 0 2.1128 0.33496 2.7914 1.0135 0.67422 0.67852 1.0135 1.6061 1.0135 2.7871v3.8048c0 1.1853-0.33926 2.1171-1.0135 2.7914-0.67851 0.67852-1.6104 1.0135-2.7914 1.0135h-19.02c-0.846 0-1.2712 0.42514-1.2712 1.2711v69.745c0 1.1853-0.33925 2.1128-1.0135 2.7914-0.67852 0.67852-1.6061 1.0135-2.7914 1.0135zm-53.895 0c-1.1852 0-2.1128-0.33496-2.7871-1.0135-0.67851-0.67852-1.0178-1.6061-1.0178-2.7914v-78.626c0-1.181 0.33926-2.1086 1.0178-2.7871 0.67423-0.67852 1.6018-1.0135 2.7871-1.0135h4.4404c1.181 0 2.1128 0.33496 2.7871 1.0135 0.67851 0.67852 1.0135 1.6061 1.0135 2.7871v78.626c0 1.1853-0.33496 2.1128-1.0135 2.7914-0.67423 0.67852-1.6061 1.0135-2.7871 1.0135zm-35.507 0c-1.1852 0-2.1343-0.31779-2.8558-0.94906-0.71717-0.63557-1.4558-1.5889-2.2159-2.8558l-32.212-56.433c-0.42514-0.67422-0.86747-0.92759-1.3313-0.76011-0.4638 0.17178-0.6957 0.59263-0.6957 1.2668v55.926c0 1.1853-0.33925 2.1128-1.0178 2.7914-0.67851 0.67852-1.6061 1.0135-2.7871 1.0135h-4.4404c-1.1853 0-2.1128-0.33496-2.7871-1.0135-0.67852-0.67852-1.0178-1.6061-1.0178-2.7914v-78.626c0-1.181 0.33926-2.1086 1.0178-2.7871 0.67422-0.67852 1.6018-1.0135 2.7871-1.0135h4.9471c1.2668 0 2.3233 0.2319 3.1693 0.69569 0.846 0.4638 1.6061 1.2883 2.2846 2.4736l30.812 53.641c0.33926 0.50674 0.73864 0.72146 1.2067 0.63557 0.46379-0.08589 0.69569-0.4638 0.69569-1.1423v-52.503c0-1.181 0.33926-2.1086 1.0178-2.7871 0.67423-0.67852 1.6018-1.0135 2.7871-1.0135h4.4404c1.181 0 2.1128 0.33496 2.7871 1.0135 0.67851 0.67852 1.0135 1.6061 1.0135 2.7871v78.626c0 1.1853-0.33496 2.1128-1.0135 2.7914-0.67423 0.67852-1.6061 1.0135-2.7871 1.0135zm-86.867-82.431c0-1.181 0.33496-2.1128 1.0135-2.7914 0.67852-0.67422 1.6061-1.0135 2.7914-1.0135h4.4404c1.181 0 2.1086 0.33926 2.7871 1.0135 0.67852 0.67852 1.0135 1.6104 1.0135 2.7914v54.53c0 4.3116-0.73864 8.2667-2.2159 11.857-1.4816 3.5944-3.5515 6.6606-6.214 9.1943-2.6625 2.538-5.8146 4.5263-9.4477 5.9606-3.6374 1.4386-7.6097 2.1558-11.921 2.1558-4.3116 0-8.2882-0.71716-11.921-2.1558-3.6374-1.4343-6.7852-3.4226-9.4477-5.9606-2.6625-2.5337-4.7367-5.5999-6.214-9.1943-1.4773-3.5901-2.2202-7.5453-2.2202-11.857v-54.53c0-1.181 0.33926-2.1128 1.0178-2.7914 0.67422-0.67422 1.6018-1.0135 2.7871-1.0135h4.4404c1.181 0 2.1128 0.33926 2.7914 1.0135 0.67422 0.67852 1.0135 1.6104 1.0135 2.7914v54.53c0 5.0717 1.5202 9.3017 4.5649 12.681 3.0447 3.384 7.4379 5.0717 13.188 5.0717 5.7459 0 10.143-1.6877 13.188-5.0717 3.0447-3.3797 4.5649-7.6097 4.5649-12.681z" fill="#2f2f30"/>
 <path d="m588.99 231.26c-0.67852-0.67852-1.6104-1.0178-2.7914-1.0178l-572.4 0.0558c-1.1895 0-2.1171 0.33497-2.7957 1.0135-0.67422 0.67422-1.0135 1.6061-1.0135 2.7914v4.4447c0 1.1852 0.33926 2.1128 1.0135 2.7914 0.67852 0.67851 1.6061 1.0178 2.7957 1.0178h276.93c0.89753 0.0945 1.6276 0.41656 2.1816 0.97483 0.67422 0.66992 1.0092 1.5975 1.0092 2.7742v4.4189c0 1.1767 0.33496 2.1042 1.0092 2.7742 0.67422 0.67422 1.5975 1.0092 2.7785 1.0092h4.4146c1.181 0 2.1043-0.33496 2.7785-1.0092 0.67422-0.66993 1.0092-1.5975 1.0092-2.7742v-4.4189c0-1.1767 0.33496-2.1043 1.0092-2.7742 0.55828-0.55827 1.2883-0.88035 2.1816-0.97483l277.08-0.0558c1.181 0 2.1128-0.33926 2.7914-1.0135 0.67422-0.67851 1.0135-1.6104 1.0135-2.7956v-4.4404c0-1.1852-0.33926-2.1171-1.0135-2.7914" fill="#ffdb03"/>
</svg>
